<?xml version="1.0" standalone="no"?>
<!DOCTYPE svg PUBLIC "-//W3C//DTD SVG 20010904//EN"
 "http://www.w3.org/TR/2001/REC-SVG-20010904/DTD/svg10.dtd">
<svg version="1.0" xmlns="http://www.w3.org/2000/svg"
 width="600.000000pt" height="600.000000pt" viewBox="0 0 600.000000 600.000000"
 preserveAspectRatio="xMidYMid meet">

<g transform="translate(0.000000,600.000000) scale(0.100000,-0.100000)"
fill="#000000" stroke="none">
<path d="M1592 5327 l-32 -33 0 -2040 0 -2040 33 -32 33 -32 799 0 c814 0 896
3 1073 40 481 101 826 406 935 830 145 559 -50 1078 -494 1315 l-59 31 47 32
c283 184 441 473 443 807 2 603 -321 994 -919 1115 -184 37 -274 40 -1059 40
l-768 0 -32 -33z m1491 -557 c357 -29 529 -146 582 -395 32 -153 10 -349 -52
-454 -80 -137 -233 -237 -427 -278 -70 -15 -141 -18 -511 -18 l-430 0 -3 565
c-1 311 0 571 3 578 6 15 649 17 838 2z m236 -1758 c239 -53 388 -186 446
-397 26 -96 31 -284 11 -385 -52 -254 -225 -417 -506 -477 -75 -16 -140 -18
-555 -18 l-470 0 -3 640 c-1 352 0 646 3 654 4 11 89 12 493 8 445 -4 495 -6
581 -25z"/>
<path d="M1646 962 c-40 -5 -74 -29 -93 -65 -12 -23 -15 -63 -15 -177 0 -161
8 -192 58 -225 26 -17 101 -17 1364 -17 1466 0 1374 -4 1415 58 15 23 17 50
17 185 -1 171 -5 189 -60 225 -24 16 -116 17 -1341 18 -724 1 -1329 0 -1345
-2z"/>
</g>
</svg>
