<svg width="259" height="324" viewBox="0 0 259 324" fill="none" xmlns="http://www.w3.org/2000/svg">
<path fill-rule="evenodd" clip-rule="evenodd" d="M245.914 194.94C248.078 193.81 250.191 192.582 252.27 191.305C253.735 190.428 252.438 188.22 250.936 189.018C250.168 189.426 249.403 189.838 248.636 190.244C249.24 189.723 249.8 189.156 250.302 188.539L250.267 188.504C252.203 186.769 249.717 183.494 247.515 184.92C245.573 186.328 243.614 187.765 241.385 188.692C236.768 190.65 231.676 190.974 226.721 191.031C224.907 190.895 223.175 191.209 221.416 191.559C222.106 188.791 223.832 186.7 224.748 184.019C225.423 181.312 221.517 179.468 220.133 182.07C219.794 182.709 219.47 183.356 219.153 184.005C216.161 186.728 211.165 186.488 208.147 189.411C206.429 190.937 205.587 193.008 205.255 195.086C205.03 196.497 205.38 197.912 204.527 199.162C200.404 204.997 193.888 214.22 190.579 220.641C188.236 205.382 181.98 186.509 175.517 172.556C173.38 168.094 170.935 163.734 167.725 159.951C168.089 158.69 166.805 156.451 165.988 157.14C163.475 154.068 159.032 153.273 155.459 151.746C150.637 149.683 146.636 145.395 144.669 140.522C142.141 131.241 135.92 130.062 127.292 130.472C119.035 130.462 112.926 133.995 111.124 142.404C107.464 148.786 98.8219 147.73 92.6045 149.42C88.0479 150.461 83.6258 152.071 79.4233 154.115C74.7482 149.679 58.0041 168.298 56.4822 173.089C57.3782 173.263 58.2686 173.472 59.1511 173.727C59.937 173.954 59.607 175.142 58.8143 174.952C57.8279 174.715 56.8352 174.552 55.8378 174.438C55.8074 174.534 55.7808 174.629 55.7609 174.722C55.6489 174.715 55.5372 174.705 55.4252 174.698C55.6734 174.827 55.9124 174.977 56.1452 175.171C56.708 175.638 55.9753 176.54 55.3772 176.168C54.8138 175.746 54.0758 175.813 53.4 175.671C53.3598 177.061 48.4008 175.506 47.6305 175.045C44.2069 174.617 40.6848 175.077 37.4888 173.425C33.2362 172.529 28.9517 171.538 24.7468 170.397C23.6336 170.831 22.5874 172.385 23.4716 173.525C23.9689 174.044 23.3296 174.891 22.7034 174.522C20.6032 173.285 18.979 171.355 17.602 169.275C16.9538 168.621 15.8032 168.762 14.9324 168.49C14.816 168.699 14.7473 168.933 14.7484 169.172C11.0543 169.78 13.6895 173.816 15.5465 175.074C14.5614 175.716 14.524 176.972 14.6102 178.021C14.4015 178.395 14.3317 178.859 14.5134 179.277C15.2081 180.879 16.7104 182.227 17.8527 183.525C19.114 184.958 20.2386 186.398 21.7732 187.56C27.6228 192.021 34.6819 194.514 41.9237 195.49C44.4951 195.885 48.1937 196.49 49.7858 198.665C49.3952 201.246 48.6779 203.722 48.0272 206.239C47.1173 209.58 47.1792 213.079 47.1672 216.485C47.04 216.383 46.7958 216.404 46.7594 216.599C46.5477 218.011 46.3903 219.455 45.5324 220.641C44.7803 222.848 44.2798 225.201 43.9986 227.519C42.8721 238.508 42.6032 249.822 45.143 260.64C46.1231 264.653 47.7171 268.467 49.8889 271.979C50.5365 273.027 51.5776 273.333 52.5124 273.128C55.6413 274.754 59.5829 275.275 62.9554 274.862C74.4528 271.606 70.4467 279.447 86.5671 277.046C114.393 273.5 142.513 280.468 170.279 276.377C170.963 281.661 179.915 280.145 183.025 277.911C192.349 270.977 196.979 249.023 201.658 237.886C204.875 229.107 210.261 213.56 217.315 207.669C219.43 206.014 221.986 205.143 224.544 204.44C234.091 201.979 243.674 199.652 253.239 197.259C254.861 196.859 254.57 194.092 252.835 194.269C250.533 194.505 248.224 194.718 245.914 194.94Z" fill="white"/>
<path fill-rule="evenodd" clip-rule="evenodd" d="M33.3898 193.294C32.7433 193.214 32.1095 192.984 31.4799 192.802C30.5186 192.521 29.5764 192.193 28.6489 191.819C26.7348 191.052 24.8778 190.145 23.1369 189.036C20.325 187.241 17.8405 184.942 15.9665 182.173L15.8379 181.98C14.768 180.35 12.7946 176.73 15.0074 175.492C13.5812 174.3 12.2334 172.159 12.3094 170.506C12.4172 168.169 15.2819 168.201 16.7629 169.192C17.7326 169.841 18.4594 170.75 19.1883 171.644C19.9953 172.637 20.8573 173.584 21.7531 174.495C21.9907 174.736 22.2308 174.972 22.475 175.204L22.7207 175.435C22.6826 175.344 22.6488 175.251 22.6193 175.156C22.1249 173.616 22.7143 171.61 24.2545 170.904C25.197 170.472 26.1758 170.735 27.0891 171.102L27.2291 171.16C28.4587 171.669 29.7031 172.119 30.9834 172.481C36.2017 173.954 41.6481 174.199 46.9953 174.934C49.0552 175.22 51.1531 175.579 53.2024 176.107C53.984 172.787 55.9002 169.604 57.9791 166.986C67.934 154.459 84.3516 150.318 99.3706 147.639C100.74 147.395 101.874 149.209 102.671 148.78C104.181 147.968 105.51 146.818 106.676 145.569C109.163 142.904 110.927 139.77 113 136.8C114.024 135.334 116.382 136.646 115.431 138.221L114.966 138.99C113.048 142.142 110.924 145.391 108.174 147.835C106.712 149.133 105.09 150.158 103.235 150.798C101.83 151.282 99.8588 151.69 98.3207 151.221L98.1361 150.952C98.1972 151.042 98.2587 151.131 98.3207 151.221C102.335 157.039 107.371 161.964 112.678 166.611C118.035 171.3 123.814 175.498 129.628 179.603L130.112 179.945C139.583 173.034 147.584 164.02 153.197 153.721C152.021 153.579 150.857 152.825 149.851 152.263C148.64 151.582 147.502 150.771 146.614 149.688C144.681 147.332 144.933 144.295 144.584 141.435C144.563 141.258 144.797 141.213 144.905 141.302C145.953 142.173 146.321 143.599 146.758 144.832C147.24 146.186 147.785 147.303 148.89 148.256C149.919 149.143 151.174 149.796 152.393 150.377C153.021 150.676 156.142 151.442 156.497 152.077C161.889 150.811 167.141 152.998 171.136 156.688C174.996 160.254 177.829 164.889 180.331 169.465C182.999 174.347 185.186 179.436 187.07 184.667C188.98 189.976 190.444 195.401 191.249 200.99C191.928 205.701 192.345 210.486 192.615 215.25L192.647 215.845C196.636 209.583 200.724 203.386 204.897 197.244C203.948 194.71 204.998 192.123 206.775 190.166C208.744 188 211.467 186.994 214.072 185.823L214.414 185.668C215.67 185.095 216.921 184.464 218.006 183.606C219.05 182.777 219.816 181.636 220.915 180.873C222.512 179.762 225.411 179.998 225.485 182.427C225.523 183.76 224.95 185.223 224.426 186.421C223.833 187.776 223.032 189.004 222.081 190.132C222.037 190.185 221.989 190.227 221.94 190.259L221.904 190.283C223.218 190.5 224.543 190.676 225.893 190.737C228.616 190.862 231.369 190.661 234.035 190.086C236.764 189.498 239.409 188.543 241.864 187.212C243.962 186.075 245.906 184.604 248.289 184.257C248.509 184.223 248.731 184.202 248.959 184.189C249.339 184.168 249.719 184.616 249.569 184.992C249.487 185.2 249.4 185.405 249.305 185.612C248.481 187.427 247.217 189.188 245.641 190.525L245.519 190.627C246.075 190.435 246.622 190.219 247.161 189.976C250.328 188.549 253.201 186.394 256.596 185.527C256.757 185.485 256.919 185.447 257.082 185.411C258.132 185.185 258.686 186.326 258.069 187.108C257.969 187.235 257.87 187.36 257.767 187.484C256.252 189.365 254.581 191.111 252.738 192.679C252.107 193.216 251.456 193.736 250.793 194.233C250.513 194.443 250.232 194.649 249.948 194.852L249.808 194.951C250.14 194.717 250.467 194.478 250.793 194.233C252.871 193.603 254.921 192.857 256.926 192.031C257.722 191.703 258.341 192.51 258.426 193.174C258.709 195.397 256.241 197.006 254.635 198.075C253.026 199.149 251.253 199.965 249.438 200.62C245.949 201.881 242.284 202.454 238.625 202.967L236.848 203.215C229.813 204.199 222.466 205.375 217.419 210.851C214.59 213.92 212.676 217.733 210.924 221.484C209.175 225.232 207.639 229.078 206.181 232.946C204.671 236.949 203.354 241.026 201.956 245.069C200.671 248.781 199.137 252.446 197.617 256.074L197.378 256.646C194.152 264.357 190.298 271.619 184.928 278.056C184.043 279.119 182.612 277.611 183.43 276.558C189.047 269.313 192.956 260.764 196.182 252.236C197.65 248.355 198.88 244.382 200.291 240.48L201.131 238.163C202.252 235.073 203.383 231.987 204.563 228.922C206.057 225.043 207.698 221.211 209.576 217.504L209.776 217.114C211.614 213.538 213.799 210.013 216.806 207.307C222.218 202.433 229.42 201.264 236.383 200.338L238.573 200.049C241.517 199.658 244.469 199.226 247.332 198.438C248.984 197.986 250.598 197.407 252.115 196.608C252.719 196.291 253.309 195.943 253.879 195.562C252.252 196.04 250.602 196.431 248.923 196.737C248.101 196.887 247.288 196.999 246.476 197.078C244.387 197.284 242.314 197.276 240.174 197.164C239.993 197.153 239.933 196.868 240.128 196.832C241.618 196.567 243.11 196.236 244.596 195.876L245.042 195.767C245.05 195.52 245.147 195.258 245.35 195.008C246.09 194.108 247.495 193.647 248.469 193.011C249.489 192.345 250.478 191.627 251.42 190.857C252.282 190.154 253.11 189.41 253.907 188.632L254.145 188.397C254.066 188.476 253.987 188.554 253.907 188.632C251.756 189.625 249.717 190.9 247.471 191.686C245.686 192.314 243.814 192.736 241.926 192.886L241.808 192.896L241.691 192.903C239.72 193.045 237.736 192.988 235.795 193.415C235.577 193.463 235.509 193.172 235.704 193.089C237.4 192.383 239.164 192.111 240.947 191.781C240.985 191.642 241.083 191.517 241.252 191.436L241.708 191.219C243.066 190.566 244.333 189.907 245.462 188.847C246.459 187.911 247.29 186.817 247.913 185.603C245.418 186.151 243.227 188.042 240.958 189.105C238.486 190.266 235.871 191.098 233.183 191.572L232.877 191.624C227.855 192.462 221.816 192.356 217.317 189.744C217.174 189.659 217.277 189.467 217.425 189.49C218.701 189.699 219.964 189.946 221.228 190.166C220.981 189.94 220.871 189.534 221.156 189.209C222.291 187.908 223.188 186.421 223.762 184.794L223.871 184.476C224.135 183.721 224.582 182.549 224.126 181.869C223.691 181.22 222.666 181.309 222.054 181.583C220.78 182.158 219.933 183.594 218.859 184.46C217.689 185.407 216.358 186.108 214.995 186.736L214.708 186.867C212.351 187.927 209.832 188.82 207.979 190.693C206.982 191.699 206.124 192.956 205.837 194.366C205.706 195.013 205.706 195.678 205.879 196.319C206.016 196.82 206.304 197.128 206.139 197.638C205.923 198.295 205.161 199.081 204.768 199.666C204.312 200.343 203.857 201.021 203.403 201.7C202.497 203.057 201.595 204.418 200.693 205.777C198.888 208.499 197.103 211.234 195.333 213.977C194.757 214.87 194.182 215.765 193.61 216.66L192.753 218.003L192.3 218.712L191.528 219.926C191.555 220.039 191.553 220.157 191.517 220.26C191.385 220.636 191.139 220.892 190.832 221.078L190.778 221.11C186.269 228.239 181.833 235.414 177.352 242.56C177.113 244.741 176.889 246.924 176.695 249.108C176.253 254.049 175.951 259.003 175.854 263.963C175.807 266.365 176 268.78 176.103 271.179C176.154 272.324 176.223 273.467 176.314 274.611L176.38 275.421C176.47 276.534 176.52 277.64 176.12 278.701C175.765 279.633 174.683 279.842 174.043 279.132C165.692 278.796 157.334 278.54 148.976 278.382C134.016 278.094 119.05 278.139 104.088 278.428C96.5735 278.574 89.0566 278.779 81.5439 279.033C77.8425 279.155 74.139 279.329 70.4355 279.379C68.4401 279.407 65.2997 278.68 65.1387 276.434L65.1348 276.365C64.8855 276.433 64.6277 276.488 64.3636 276.528C64.2461 276.546 64.1331 276.541 64.0288 276.517L63.977 276.503C61.0026 277.41 57.2402 276.116 54.4139 275.362L54.1806 275.3C51.4827 274.596 49.3151 273.59 47.5468 271.354C44.4517 267.438 43.3954 262.18 42.8461 257.333C42.3306 252.772 42.301 248.127 42.9285 243.575C42.5587 239.865 42.92 236.038 43.3404 232.35C43.5475 230.526 43.7904 228.704 44.082 226.89C44.2446 225.878 44.458 224.876 44.6756 223.877C44.7625 223.477 44.8348 223.047 44.945 222.631L44.9946 222.454C44.6566 222.499 44.2869 222.425 43.9298 222.228C43.0805 221.761 42.8334 220.816 42.8186 219.912C42.7721 217.185 43.0974 214.381 43.3848 211.671C43.6742 208.966 44.0714 206.25 44.5911 203.579L44.7256 202.89C45.1194 200.891 45.57 198.828 46.3636 196.951C43.3827 196.444 40.4102 195.905 37.5179 194.987C36.1067 194.537 34.7165 193.977 33.3898 193.294ZM188.98 221.668C188.933 221.679 188.889 221.691 188.845 221.704C187.653 222.038 186.449 222.321 185.249 222.626C183.174 223.148 181.146 223.731 179.217 224.638C178.813 229.74 178.214 234.825 177.645 239.913L177.531 240.931C178.406 239.307 179.302 237.697 180.238 236.106C183.088 231.255 186.003 226.442 188.98 221.668ZM45.7214 222.173C45.7277 222.78 45.601 223.41 45.5334 223.993C45.4235 224.94 45.3348 225.891 45.2228 226.838C44.9946 228.74 44.8003 230.644 44.6587 232.555C44.5679 233.774 44.5087 234.998 44.4559 236.222C45.6538 231.743 47.2404 227.362 48.7489 222.974C48.4968 222.948 48.239 222.886 47.9731 222.815L47.5255 222.695C47.2616 222.627 46.4054 222.416 45.7214 222.173ZM192.753 218.003L192.762 218.204C192.793 218.916 192.367 219.318 191.849 219.421C192.149 218.948 192.451 218.475 192.753 218.003ZM55.6827 184.247C56.9439 184.358 58.1798 184.627 59.3587 185.092L59.4725 185.136C60.3444 185.473 61.6193 185.896 61.9045 186.827C61.9848 187.091 61.7693 187.309 61.5221 187.33C60.5756 187.406 59.4601 186.392 58.5834 186.049C57.6073 185.669 56.5848 185.385 55.5496 185.235C53.2235 184.895 50.7981 185.153 48.6094 186.001C48.4805 186.051 48.4003 185.846 48.5165 185.785C50.7221 184.584 53.1749 184.025 55.6827 184.247ZM28.9552 190.291C28.8094 190.162 28.6636 190.027 28.52 189.892C27.3873 188.82 26.3842 187.569 25.6415 186.194L25.4461 185.822C24.8412 184.65 24.0984 182.981 25.52 182.137C26.3692 181.632 27.3918 181.759 28.3383 182.065C28.3995 182.084 28.4608 182.106 28.5221 182.126C28.9446 182.275 29.3523 182.452 29.7157 182.621C31.2939 183.346 32.6861 184.401 34.1439 185.331C35.7234 186.339 37.2831 186.984 39.106 187.361L39.2777 187.395C40.989 187.734 42.8439 187.951 44.0376 189.359C44.3376 189.714 44.0629 190.38 43.5453 190.204C40.2453 189.091 36.7531 188.845 33.7235 187.017C32.4685 186.261 31.2812 185.392 29.9988 184.675C29.3185 184.295 28.6162 183.962 27.8677 183.734L27.4588 183.613C27.2193 183.543 26.9333 183.474 26.7411 183.543C26.3751 183.67 26.4919 183.865 26.6051 184.207L26.6164 184.242C27.5059 186.994 30.0411 189.298 32.3904 190.821C32.9291 191.172 33.4805 191.494 34.0425 191.792C37.8465 193.82 42.1028 194.764 46.2832 195.885C46.2832 195.885 48.7003 196.56 49.501 196.813C50.3926 196.739 51.4087 197.054 52.0806 197.43C52.7334 197.796 53.2595 198.286 53.6566 198.863C53.6566 198.863 54.039 199.183 54.1088 199.677C54.3095 200.136 54.4447 200.63 54.5123 201.146C54.5503 201.448 54.4742 201.681 54.3306 201.845C54.7627 208.48 52.9713 215.078 50.9516 221.383L50.7514 222.005L50.6228 222.399C48.4447 229.084 45.9454 235.721 44.8299 242.691C44.0841 247.347 44.1073 252.166 44.6545 256.843L44.6931 257.166C45.2322 261.588 46.2696 266.549 49.0806 270.108C50.5144 271.924 52.2131 272.731 54.3849 273.316L54.5038 273.348C56.4686 273.865 58.4968 274.599 60.5228 274.821C62.4031 275.025 63.9792 274.326 65.6714 273.671L65.6735 273.669C69.2376 270.513 70.8559 265.919 72.0517 261.281C75.151 249.281 74.7665 236.824 73.0087 224.648C72.0918 218.287 70.8453 211.98 69.6031 205.675C68.982 202.524 68.3123 199.379 67.7566 196.217L67.4266 194.356C67.2445 193.323 67.0684 192.288 66.9179 191.248C66.7151 189.851 66.6538 188.478 66.5841 187.072C64.877 184.242 62.3989 181.911 59.5277 180.239C57.4721 179.041 55.2961 178.21 53.0503 177.608C46.6298 175.877 39.6305 176 33.17 174.668C30.9996 174.221 28.9394 173.558 26.8803 172.763L26.5996 172.654C25.6552 172.286 24.6918 172.081 24.2228 173.195C23.889 173.987 24.0876 174.812 24.5883 175.477C25.8157 177.109 28.2834 177.866 30.1404 178.453C31.258 178.808 32.3988 179.089 33.5524 179.299C34.7059 179.508 35.8636 179.561 36.9707 179.969C37.3974 180.125 37.4819 180.804 36.9707 180.924C35.5679 181.252 34.1566 180.97 32.7622 180.698C31.2305 180.395 29.7221 179.967 28.2559 179.423C27.9855 179.324 27.7056 179.218 27.4206 179.107L27.2059 179.022C27.4277 179.183 27.6496 179.341 27.8735 179.5C27.9326 179.542 27.8967 179.654 27.8186 179.626C24.3711 178.34 21.2343 176.018 18.8043 173.271L18.6834 173.134C17.8277 172.153 15.8777 169.186 14.2341 170.012C12.6906 170.787 15.3216 173.775 16.3215 174.996L16.4376 175.139C17.5742 175.169 18.6749 175.877 19.5961 176.447C21.1954 177.439 22.8665 178.293 24.5693 179.091C27.9538 180.683 31.5475 181.805 34.8961 183.477C34.9404 183.5 34.9066 183.557 34.8644 183.551C32.7327 183.211 30.6242 182.668 28.5644 181.994L28.4725 181.965L28.3806 181.934C27.094 181.511 25.8242 181.034 24.5756 180.524C23.1876 179.958 21.8313 179.322 20.5151 178.601C19.3235 177.95 18.001 176.777 16.6193 176.604C16.4714 176.585 16.3404 176.583 16.2264 176.594C14.6398 176.727 15.9517 179.356 16.3954 180.142C17.12 181.433 17.9947 182.625 18.9982 183.714C21.0327 185.925 23.4982 187.677 26.1665 189.04C27.0771 189.505 28.0088 189.915 28.9552 190.291Z" fill="black"/>
<path fill-rule="evenodd" clip-rule="evenodd" d="M130.31 50.4506C139.769 50.4506 151.118 55.0379 152.083 55.1296L152.109 55.131C152.616 55.131 154.6 56.6429 158.06 59.6665L154.312 66.978L154.616 67.2677C156.067 68.6595 157.306 69.9281 158.283 70.9281C166.268 79.0935 167.703 111.153 165.821 122.333C163.939 133.514 160.454 144.454 144.229 144.454C128.004 144.454 109.954 134.694 107.173 131.655C105.319 129.629 103.237 128.658 100.926 128.743C100.831 128.623 100.737 128.503 100.644 128.384L100.304 128.336C97.1057 127.873 94.8142 127.249 93.4294 126.465C90.7245 124.934 87.7515 116.886 87.7515 115.113C87.7515 113.358 83.3122 100.59 83.2234 99.2389L83.2221 99.2014C83.2221 98.0719 77.4226 92.8796 77.4226 91.2306C77.4226 89.5816 76.2536 89.6816 77.4226 83.8708L77.7622 82.1638C79.0062 75.977 81.441 65.7326 90.7245 61.2811C100.926 56.3893 120.756 50.4506 130.31 50.4506Z" fill="white"/>
<path fill-rule="evenodd" clip-rule="evenodd" d="M89.1498 61.0513C94.2377 55.6488 123.123 47.2924 137.736 49.0638L138.175 49.1206C139.341 49.2685 140.49 49.4926 141.624 49.7969C145.291 50.6535 149.078 51.9506 152.107 54.1171C154.636 55.8895 162.615 58.7839 160.263 63.4205C161.135 65.0731 161.46 67.1147 160.871 68.7423C160.797 69.3045 160.624 69.8223 160.402 70.3592C162.265 73.109 163.74 76.2188 164.934 79.1767C167.02 86.6207 168.318 94.3675 168.508 101.962C169.141 116.392 167.559 133.628 154.997 142.958C147.408 148.871 135.52 149.069 126.992 141.738C126.508 141.166 124.232 139.619 124.992 139.348C125.218 139.587 125.45 139.819 125.687 140.048C125.676 140.022 125.674 139.997 125.678 139.969L125.456 139.768C125.037 139.38 124.494 138.817 125.112 138.928C125.139 138.959 125.169 138.987 125.198 139.018C125.329 139.097 125.428 139.165 125.505 139.225L125.545 139.257L125.533 139.244C125.176 138.864 124.963 138.477 125.496 138.724L125.566 138.758C125.803 139.008 126.044 139.247 126.289 139.479C126.285 139.452 126.289 139.424 126.304 139.395L126.075 139.174C125.852 138.955 125.886 138.954 125.995 138.777C125.521 138.113 126.406 138.508 126.468 138.767C127.022 138.636 127.508 139.676 127.865 139.803C143.498 151.826 166.186 141.157 165.818 107.653L165.813 106.998C165.705 96.2844 164.804 85.2732 160.374 75.5753C159.944 74.6411 159.462 73.7323 158.932 72.8531C158.566 72.1937 158.175 71.5512 157.755 70.9256C156.578 70.8305 155.416 70.6149 154.271 70.281C153.878 70.1816 153.489 70.0717 153.101 69.9428C147.422 70.2526 141.87 70.5897 136.175 70.9093L134.396 71.0201C129.572 71.3304 124.583 71.8273 120.69 74.8123C116.87 77.5299 116.853 82.8886 113.583 85.8723C108.92 89.0381 108.886 91.8928 107.989 96.5581C108.055 100.075 110.493 105.185 106.02 106.665C106.774 107.741 105.722 107.224 105.639 106.847C105.631 106.849 105.623 106.851 105.616 106.851C106.289 108.101 105.3 107.314 105.213 106.912C105.16 106.897 105.107 106.859 105.054 106.807C105.732 107.902 104.637 107.135 104.701 106.935C103.392 104.922 100.698 104.61 98.7984 105.143C98.7752 105.215 98.6909 105.221 98.6381 105.183C90.562 106.934 92.6457 123.66 100.922 122.043C101.276 121.97 101.268 122.141 101.338 122.157C101.147 121.655 101.686 121.859 101.68 121.965L101.713 121.963C101.739 121.961 101.728 121.958 101.748 121.965C101.563 120.938 102.603 122.426 102.521 122.487C102.553 122.468 102.589 122.457 102.62 122.453L102.585 122.355C102.412 121.895 102.427 122.086 102.428 121.823C102.298 121.497 102.289 121.64 102.319 121.428C102.775 121.074 102.91 122.146 103.062 122.225C102.801 121.861 103.008 121.564 103.254 121.761C105.118 125.684 107.526 129.369 110.638 132.272C110.978 132.541 111.323 132.805 111.679 133.054C113.003 134.207 115.033 134.949 116.272 135.971C116.272 135.988 116.264 136.009 116.251 136.03L116.28 136.056V136.056L116.309 136.083L116.739 136.29C116.866 136.398 116.98 136.518 117.082 136.651C117.189 136.776 117.284 136.913 117.365 137.059C117.405 137.237 117.316 137.311 117.147 137.235C117.073 137.209 116.999 137.18 116.925 137.152C116.93 137.159 116.932 137.163 116.936 137.167C116.96 137.204 117.124 137.584 116.935 137.522L116.913 137.514C116.809 137.476 116.706 137.433 116.604 137.393C116.725 137.543 116.834 137.706 116.932 137.843C117.035 137.951 117.098 138.078 117.124 138.222C117.12 138.302 117.075 138.336 116.995 138.325C116.873 138.285 116.752 138.243 116.632 138.198L116.666 138.264C116.751 138.432 116.872 138.713 116.657 138.619C116.473 138.562 116.296 138.496 116.118 138.425C116.103 138.454 116.074 138.465 116.015 138.437C115.451 138.236 114.906 137.991 114.384 137.702C113.925 137.368 113.463 137.04 113.002 136.708C112.569 136.448 112.151 136.159 111.751 135.833C109.08 134.107 106.741 131.914 104.885 129.472C101.782 132.16 95.5772 129.592 91.7391 127.487C88.3443 125.606 87.0099 122.128 86.6649 118.378C85.9477 113.33 81.8237 111.602 82.1106 100.525C82.1043 100.527 82.0977 100.527 82.0893 100.527C81.9393 100.483 81.7937 100.424 81.6564 100.348C81.5148 100.28 81.3817 100.2 81.2569 100.102L81.1027 99.889V99.889C81.0226 99.8446 80.9508 99.7981 80.8958 99.7516L80.8673 99.7884C80.7772 99.8973 80.8378 99.7335 80.843 99.7009L80.5751 99.3364C79.9398 98.4688 79.2429 97.4952 78.6752 96.7167L78.6573 96.7483C78.6445 96.7722 78.6377 96.7894 78.6437 96.797C77.2927 94.8551 76.0221 92.5095 75.6691 90.2388C75.2522 88.4896 75.4151 86.6872 75.7787 85.067C77.3377 79.3933 82.4444 66.5542 89.1498 61.0513ZM125.815 139.516L125.73 139.44L125.805 139.534C125.844 139.582 125.884 139.625 125.949 139.669C125.944 139.655 125.944 139.64 125.946 139.623C125.903 139.59 125.859 139.554 125.815 139.516ZM137.672 51.9146C127.762 51.0623 118.014 53.2463 108.558 55.8901L107.905 56.0777C102.528 57.6126 96.8421 58.9938 92.2979 62.2792C85.9491 67.1439 82.6707 74.8827 79.8097 82.0278C77.3115 87.3365 78.5886 93.3226 82.3534 97.0295C82.7451 93.3458 83.4129 89.77 84.4565 86.2229C84.6743 85.6687 84.5096 85.4872 84.979 85.4149C85.688 94.9739 82.196 102.036 89.1065 113.365C92.1051 118.711 88.6339 122.622 97.1015 125.435L97.3307 125.522C99.0948 126.188 101.021 126.714 102.749 126.342L102.594 126.09C102.436 125.83 102.389 125.704 102.618 125.593C102.612 125.581 102.604 125.568 102.595 125.553C102.409 125.202 102.23 124.847 102.058 124.488C101.989 124.511 101.919 124.528 101.847 124.547C101.894 124.634 101.9 124.721 101.769 124.75C101.304 124.91 100.825 124.974 100.336 124.944L100.231 124.936C99.6782 124.902 99.3298 124.802 99.0181 124.708C98.9148 124.691 98.8113 124.674 98.7097 124.653C97.7072 124.431 96.646 123.865 95.9592 123.305C88.1301 118.856 88.9392 103.713 98.5895 102.282C98.7874 92.7471 103.321 76.6616 110.844 67.5763C117.644 59.2193 136.209 55.5972 149.125 56.8744C149.313 56.9367 149.502 56.9997 149.69 57.0633C151.683 57.2404 153.582 58.1285 155.576 58.5411C154.144 57.4676 152.52 56.7526 150.847 56.145C147.513 54.1053 143.692 53.0016 140 52.2232C139.235 52.0351 138.46 51.9315 137.672 51.9146ZM98.1478 109.941C98.6667 109.659 98.6073 109.931 98.7267 109.852C102.459 109.547 106.483 112.816 108.57 115.542C108.405 115.713 107.959 115.206 107.881 115.125C107.87 115.136 107.858 115.144 107.845 115.148L107.903 115.231C108.749 116.444 107.072 115.016 106.915 114.722C106.888 114.736 106.86 114.745 106.829 114.738C106.962 114.869 107.368 115.209 107.437 115.451L107.545 115.54C108.559 116.409 108.475 117.063 107.323 115.829C107.351 115.886 107.361 115.939 107.342 115.981L107.382 116.008C107.948 116.404 108.414 117.507 107.23 116.374C107.353 117.202 106.057 115.602 106.015 115.613C103.772 113.852 100.469 112.139 97.6555 111.908L97.5587 111.897C97.0423 111.831 96.7982 111.678 96.9795 111.34C96.3436 111.189 96.4925 110.875 96.7936 110.886C96.345 110.591 96.7488 110.308 97.0091 110.418C96.8301 109.923 97.5478 110.253 97.6133 110.184C97.9858 109.609 98.0861 110.089 98.1478 109.941ZM90.3246 79.2211C92.1172 78.5642 97.4122 80.5306 96.9886 83.1348C96.7363 83.7328 95.9052 84.0754 95.3211 83.7378L94.5586 83.2256C93.2318 82.3366 92.0352 81.5572 90.6106 80.7819C89.8353 80.397 89.5015 79.5799 90.3246 79.2211ZM100.523 75.351L99.8312 74.9003C96.0951 72.4542 90.8136 68.7478 100.18 72.5825C101.248 73.0405 102.666 73.3115 103.249 74.3285C104.164 76.2029 101.756 76.3289 100.523 75.351ZM100.943 64.3758C100.644 63.2377 104.374 64.5732 105.46 64.9253L105.625 64.9878C106.682 65.3815 107.892 65.7468 108.524 66.6588C109.265 67.9189 107.766 68.1799 106.838 67.6107C104.935 66.3667 102.849 65.4281 100.943 64.3758ZM110.429 59.0741C108.33 56.7802 113.949 58.9777 114.791 59.5876L114.815 59.6056C115.443 60.048 115.315 61.0007 114.725 61.2806C113.046 61.3125 111.811 59.9125 110.429 59.0741ZM119.984 56.5609C116.646 54.161 121.043 55.3025 122.57 56.243C123.611 57.1613 122.539 58.7116 119.984 56.5609Z" fill="black"/>
<path fill-rule="evenodd" clip-rule="evenodd" d="M152.125 125.777C153.46 125.466 154.509 126.597 154.247 127.899C153.969 129.278 152.487 129.751 151.244 129.707C149.835 129.659 148.427 129.368 147.012 129.309C145.557 129.249 144.097 129.238 142.641 129.277C141.295 129.314 139.914 129.551 138.578 129.338C138.058 129.255 138.107 128.568 138.445 128.324C139.45 127.599 140.752 127.304 141.937 126.999C143.144 126.689 144.379 126.452 145.617 126.307C146.873 126.16 148.139 126.086 149.403 126.072C149.978 126.065 150.683 126.193 151.244 126.09C151.53 126.037 151.821 125.848 152.125 125.777ZM148.271 107.866C149.866 108.836 152.297 111.098 150.581 113.503C148.56 115.624 145.652 113.193 144.219 112.093C142.889 111.241 141.396 113.433 142.629 114.428C152.986 122.099 157.19 108.12 149.078 106.726C148.184 106.572 147.853 107.566 148.271 107.866ZM136.703 100.622C138.837 100.267 139.21 103.31 137.095 103.523C136.651 103.568 136.21 103.607 135.769 103.645C135.812 103.783 135.841 103.925 135.856 104.071C135.876 104.195 135.891 104.326 135.905 104.476C135.972 105.225 135.441 106.004 134.821 106.367C134.177 106.744 133.252 106.794 132.612 106.367C132.282 106.146 131.952 105.897 131.77 105.533C131.526 105.158 131.393 104.724 131.38 104.279C130.407 104.532 129.416 104.874 128.433 105.055C128.47 105.09 128.505 105.128 128.54 105.17C128.566 105.202 128.53 105.261 128.492 105.232L127.999 105.123V105.123C127.847 105.143 127.695 105.159 127.544 105.168L127.548 105.155V105.155C127.295 105.151 127.088 104.852 127.314 104.612C128.182 103.694 129.537 103.084 130.772 102.574L131.962 102.086C133.483 101.468 135.089 100.891 136.703 100.622ZM153.87 101.564C155.268 101.404 156.652 101.467 158.052 101.553C160.408 101.696 159.42 105.134 157.529 104.34C157.548 104.466 157.553 104.592 157.539 104.709C157.465 105.313 157.268 105.824 156.714 106.149C156.199 106.45 155.546 106.449 155.031 106.149C154.48 105.827 154.231 105.374 154.09 104.785C153.981 104.328 154.025 103.946 154.088 103.493C154.109 103.344 154.174 103.204 154.265 103.078C154.133 103.045 154.001 103.013 153.869 102.984C152.693 102.716 151.533 102.77 150.36 102.6C150.235 102.582 150.215 102.38 150.325 102.329C151.378 101.834 152.718 101.695 153.87 101.564ZM136.487 90.9473C137.294 90.6394 138.307 91.1515 138.719 91.8559C139.186 92.6552 138.987 93.578 138.41 94.2516C137.525 95.2848 135.84 95.9213 134.598 96.5109L134.499 96.5587C133.223 97.1741 131.913 97.7393 130.585 98.2317C129.28 98.7163 127.921 99.0959 126.567 99.4218C125.853 99.5936 125.124 99.7357 124.395 99.8253C123.819 99.8959 123.375 99.7378 122.824 99.7378C122.743 99.738 122.718 99.6313 122.784 99.5903C123.299 99.2665 123.681 98.8402 124.243 98.5403C124.827 98.2281 125.414 97.9212 126.003 97.6173C127.194 97.0031 128.341 96.3196 129.49 95.6317C130.701 94.9065 131.884 94.1429 133.035 93.3254C134.162 92.5255 135.2 91.4387 136.487 90.9473ZM150.861 90.2896C151.869 90.0941 152.866 90.5709 153.164 91.5979C153.45 92.5817 153.151 92.7926 153.914 93.4966C154.521 94.0577 155.177 94.5585 155.838 95.0516L156.811 95.7755C158.575 97.0811 160.352 98.3156 162.38 99.1965C162.551 99.2709 162.452 99.5256 162.289 99.529C159.067 99.5911 155.976 99.1547 153.067 97.7114C151.709 97.0372 150.343 96.1844 149.556 94.8385C148.644 93.28 148.671 90.7144 150.861 90.2896Z" fill="black"/>
</svg>
