<?xml version="1.0" standalone="no"?>
<!DOCTYPE svg PUBLIC "-//W3C//DTD SVG 20010904//EN"
 "http://www.w3.org/TR/2001/REC-SVG-20010904/DTD/svg10.dtd">
<svg version="1.0" xmlns="http://www.w3.org/2000/svg"
 width="512.000000pt" height="512.000000pt" viewBox="0 0 512.000000 512.000000"
 preserveAspectRatio="xMidYMid meet">

<g transform="translate(0.000000,512.000000) scale(0.100000,-0.100000)"
fill="#000000" stroke="none">
<path d="M2310 5109 c-502 -55 -974 -249 -1355 -556 -129 -104 -340 -321 -433
-445 -265 -354 -434 -758 -498 -1193 -22 -147 -29 -428 -15 -575 42 -433 180
-833 405 -1174 414 -629 1047 -1032 1791 -1142 147 -22 428 -29 575 -15 433
42 833 180 1174 405 629 414 1032 1047 1142 1791 22 147 29 428 15 575 -51
524 -238 988 -558 1385 -104 129 -321 340 -445 433 -354 265 -755 432 -1193
498 -121 18 -487 26 -605 13z m-363 -2084 c-4 -25 -13 -58 -21 -73 -8 -15
-152 -185 -321 -377 l-306 -350 326 -3 325 -2 0 -54 c0 -39 -6 -60 -21 -80
l-20 -26 -446 0 -446 0 6 51 c4 31 16 63 30 83 14 17 156 179 316 360 160 181
291 333 291 337 0 5 -137 9 -305 9 l-305 0 0 85 0 85 451 0 452 0 -6 -45z
m1273 -460 l0 -505 -84 0 c-76 0 -86 2 -100 22 -14 20 -16 84 -16 505 l0 483
100 0 100 0 0 -505z m-635 255 c33 -11 64 -25 69 -30 18 -18 36 -10 36 15 l0
26 88 -3 87 -3 3 -382 2 -383 -70 0 c-70 0 -99 13 -112 50 -2 8 -14 6 -38 -9
-82 -48 -233 -64 -336 -37 -132 35 -231 116 -287 236 -27 55 -31 76 -31 145 1
107 28 176 101 255 59 65 160 123 243 140 64 13 175 4 245 -20z m1334 11 c84
-26 137 -60 199 -125 71 -74 94 -130 100 -233 8 -139 -41 -245 -151 -328 -76
-58 -154 -86 -251 -93 -98 -6 -171 10 -259 56 -81 42 -138 103 -181 192 -27
57 -31 76 -31 150 0 75 4 93 32 152 91 194 330 295 542 229z"/>
<path d="M2337 2666 c-140 -50 -201 -199 -133 -324 115 -208 455 -148 483 85
10 91 -48 185 -142 229 -58 27 -147 31 -208 10z"/>
<path d="M3730 2681 c-202 -43 -273 -270 -124 -401 53 -46 99 -63 174 -63 193
-2 316 172 235 333 -49 96 -175 154 -285 131z"/>
</g>
</svg>
